<?xml version="1.0" encoding="utf-8"?>
<!-- Generator: Adobe Illustrator 23.0.2, SVG Export Plug-In . SVG Version: 6.00 Build 0)  -->
<svg version="1.1" id="Calque_1" xmlns="http://www.w3.org/2000/svg" xmlns:xlink="http://www.w3.org/1999/xlink" x="0px" y="0px"
	 viewBox="0 0 271.1 145.4" style="enable-background:new 0 0 271.1 145.4;" xml:space="preserve">
<style type="text/css">
	.st0{fill:#FFFFFF;}
</style>
<g>
	<path class="st0" d="M129.1,117.6l-9,25h3.4l2.2-6.4h9.4l2.2,6.4h3.4l-8.8-25H129.1z M126.7,133.3l3.7-10.7h0.1l3.6,10.7H126.7z"/>
	<path class="st0" d="M236.9,134.2c0.1,1.7-0.5,3.3-1.7,4.5c-1.2,1.1-2.8,1.7-4.5,1.6c-1.6,0.1-3.1-0.5-4.2-1.6
		c-1.1-1.2-1.7-2.8-1.6-4.5v-16.6h-3.4v16.6c-0.1,2.4,0.8,4.8,2.6,6.4c1.8,1.6,4.2,2.4,6.7,2.3c2.5,0.1,5-0.7,6.9-2.3
		c1.8-1.6,2.8-4,2.7-6.4v-16.6l-3.4,0V134.2z"/>
	<path class="st0" d="M171.6,138.6v-2.3c0-1.3-0.3-2.6-0.9-3.7c-0.7-1.1-1.7-1.8-3-2.2c1.2-0.5,2.2-1.3,2.9-2.3c0.7-1,1-2.2,1-3.3
		c0.1-2-0.7-4-2.2-5.3c-1.8-1.3-4-2-6.3-1.8h-8.5v25h3.4v-10.8l5.8,0c1.2-0.1,2.3,0.4,3.2,1.2c0.8,0.9,1.2,2.1,1.2,3.3v2.3
		c0,0.8,0.1,1.6,0.2,2.3c0.1,0.7,0.4,1.3,0.9,1.7h3.5v-0.4c-0.4-0.4-0.7-0.9-0.9-1.5C171.6,140,171.5,139.3,171.6,138.6z M167,128
		c-1.2,0.8-2.7,1.2-4.1,1.1H158v-8.8h5.2c1.4-0.1,2.7,0.3,3.8,1.2c0.9,0.9,1.3,2.1,1.2,3.3C168.3,125.9,167.9,127.1,167,128z"/>
	<polygon class="st0" points="259.2,139.9 259.2,131 269.5,131 269.5,128.3 259.2,128.3 259.2,120.3 271.1,120.3 271.1,117.6 
		255.9,117.6 255.9,142.6 271.3,142.6 271.3,139.9 	"/>
	<path class="st0" d="M205.7,136.1c0.4-1.2,0.6-2.5,0.6-3.7l0-4.4c0.1-2.8-0.9-5.5-2.8-7.6c-1.9-2-4.6-3.1-7.4-3
		c-2.7-0.1-5.3,1-7.1,3c-1.9,2.1-2.8,4.8-2.7,7.6v4.4c-0.1,2.8,0.9,5.5,2.7,7.6c1.8,2,4.4,3.1,7.1,3c1,0,2-0.1,3-0.4
		c0.9-0.3,1.8-0.6,2.6-1.2l3.8,3.7l2.3-2.2l-3.7-3.6C204.8,138.3,205.3,137.2,205.7,136.1z M202.9,132.3c0.1,2.1-0.6,4.1-1.8,5.7
		c-1.2,1.5-3.1,2.3-5,2.2c-1.8,0.1-3.6-0.8-4.7-2.2c-1.2-1.6-1.8-3.6-1.8-5.7v-4.5c-0.1-2,0.5-4,1.8-5.6c1.1-1.4,2.9-2.3,4.7-2.2
		c1.9-0.1,3.7,0.7,5,2.2c1.3,1.6,1.9,3.6,1.9,5.6V132.3z"/>
	<polygon class="st0" points="93.7,137.9 93.6,137.9 85.6,117.6 81.2,117.6 81.2,142.6 84.6,142.6 84.6,123.2 84.7,123.2 
		92.5,142.6 94.8,142.6 102.4,123.8 102.5,123.9 102.5,142.6 105.9,142.6 105.9,117.6 101.7,117.6 	"/>
	<polygon class="st0" points="3.4,117.6 0,117.6 0,142.6 15.6,142.6 15.6,139.9 3.4,139.9 	"/>
	<path class="st0" d="M36.7,117.6l-9,25h3.4l2.2-6.4h9.4l2.2,6.4h3.5l-8.8-25H36.7z M34.3,133.3l3.7-10.7h0.1l3.6,10.7H34.3z"/>
	<path class="st0" d="M73.3,91c-1.3,0-1.7,1.3-1.7,2.4c0,1.1,0.4,2.4,1.7,2.4c1.3,0,1.6-1.4,1.6-2.4C75,92.4,74.6,91,73.3,91z"/>
	<path class="st0" d="M139.3,90.9c-0.9,0-1.7,0.7-1.7,1.7c0,0,0,0.1,0,0.1h3.3C140.8,91.7,140.4,90.9,139.3,90.9z"/>
	<path class="st0" d="M177.4,90.9c-0.9,0-1.7,0.7-1.7,1.7c0,0,0,0.1,0,0.1h3.3C179,91.7,178.5,90.9,177.4,90.9z"/>
	<path class="st0" d="M112.5,90.9c-0.9,0-1.7,0.7-1.7,1.7c0,0,0,0.1,0,0.1h3.3C114.1,91.7,113.6,90.9,112.5,90.9z"/>
	<path class="st0" d="M82.8,95c0,0.6,0.5,0.9,1.2,0.9c0.5,0,1-0.2,1.4-0.7c0.3-0.5,0.4-1,0.4-1.5h-0.8C84.1,93.7,82.8,93.8,82.8,95z
		"/>
	<path class="st0" d="M30.6,90.9c-0.9,0-1.7,0.7-1.7,1.7c0,0,0,0.1,0,0.1h3.3C32.1,91.7,31.6,90.9,30.6,90.9z"/>
	<path class="st0" d="M271.1,0H0v108.4h271.1V0z M22.5,97.2h-1.9V86.3h1.9V97.2z M30.8,95.9c0,0,0.1,0,0.1,0c0.9,0,1.7-0.3,2.5-0.8
		v1.6c-0.8,0.4-1.7,0.6-2.6,0.6c-1.9,0.2-3.7-1.2-3.9-3.2c0-0.2,0-0.5,0-0.7c0-2.2,1.1-3.9,3.5-3.9c2.8,0,3.6,1.9,3.6,4.5h-5.2
		C28.9,95.1,29.8,95.9,30.8,95.9z M20.7,77V12.9h22.9l22.8,43.6h0.2l-0.3-43.6h16.4V77H60.4L36.8,33.2h-0.2L37.2,77H20.7z
		 M63.8,86.6l-2,2.1h-1.2l1.2-2.1H63.8z M48.3,97.2h-2.8V87h2.8c3.1,0,5.8,1,5.8,5.1S51.4,97.2,48.3,97.2z M62.1,95.9
		c0,0,0.1,0,0.1,0c0.9,0,1.7-0.3,2.5-0.8l0,1.6c-0.8,0.4-1.7,0.6-2.6,0.6c-1.9,0.2-3.7-1.2-3.9-3.2c0-0.2,0-0.5,0-0.7
		c0-2.2,1.1-3.9,3.5-3.9c2.8,0,3.6,1.9,3.6,4.5h-5.2C60.1,95.1,61,95.9,62.1,95.9z M73.8,97.3c-0.9,0-1.7-0.3-2.2-1h0v3.9h-1.9V89.7
		h1.9v1.1h0c0.5-0.8,1.4-1.3,2.3-1.2c2.3,0,3.1,1.8,3.1,3.9S76.1,97.3,73.8,97.3z M86,97.2c-0.1-0.4-0.1-0.7-0.1-1.1h0
		c-0.5,0.8-1.4,1.3-2.3,1.3c-1.3,0.1-2.5-0.8-2.6-2.1c0,0,0-0.1,0-0.1c-0.1-0.9,0.4-1.8,1.3-2.1c0.8-0.3,1.7-0.5,2.5-0.4h1.1
		c0-1.2-0.5-1.6-1.7-1.6c-0.8,0-1.6,0.3-2.3,0.8l-0.1-1.7c0.8-0.4,1.7-0.6,2.6-0.6c2.3,0,3.2,0.9,3.2,3.1v1c0,0.8,0,1.3,0,1.9
		c0,0.6,0,1.1,0.1,1.7H86z M96.8,91.5c-0.3-0.1-0.6-0.2-0.9-0.2c-1.6,0-1.6,2-1.6,3v2.7h-1.9v-7.5h1.7v1.7h0c0.2-1,1-1.8,2-1.9
		c0.2,0,0.4,0,0.6,0.1V91.5z M103.9,97.3c-1.2,0.1-2.3-0.8-2.4-2c0-0.1,0-0.3,0-0.4l0-3.8h-1.4v-1.4h1.4v-1.5l1.9-0.6v2.1h1.7v1.4
		h-1.7v3.5c0,0.6,0.2,1.2,0.9,1.2c0.3,0,0.6-0.1,0.9-0.2l0.1,1.5C104.9,97.3,104.4,97.3,103.9,97.3z M112.8,95.9c0,0,0.1,0,0.1,0
		c0.9,0,1.7-0.3,2.5-0.8l0,1.6c-0.8,0.4-1.7,0.6-2.6,0.6c-1.9,0.2-3.7-1.2-3.9-3.2c0-0.2,0-0.5,0-0.7c0-2.2,1.1-3.9,3.5-3.9
		c2.8,0,3.6,1.9,3.6,4.5h-5.2C110.8,95.1,111.7,95.9,112.8,95.9z M89.4,53.1c0-15.9,12.6-25.1,29.2-25.1c16.6,0,29.2,9.2,29.2,25.1
		c0,15.8-12.6,25-29.2,25C102.1,78.1,89.4,68.9,89.4,53.1z M131.3,97.2h-1.9v-4.5c0-0.7,0-1.7-1.1-1.7c-1.3,0-1.5,1.5-1.5,2.5v3.6
		h-1.9v-4.5c0-0.7,0-1.7-1.1-1.7c-1.3,0-1.5,1.5-1.5,2.5v3.6h-1.9v-7.5h1.8v1h0c0.5-0.8,1.3-1.2,2.2-1.2c0.9-0.1,1.8,0.4,2.2,1.3
		c0.5-0.8,1.4-1.4,2.3-1.3c1.8,0,2.4,1.3,2.4,2.9V97.2z M139.5,95.9c0,0,0.1,0,0.1,0c0.9,0,1.7-0.3,2.5-0.8l0,1.6
		c-0.8,0.4-1.7,0.6-2.6,0.6c-1.9,0.2-3.7-1.2-3.9-3.2c0-0.2,0-0.5,0-0.7c0-2.2,1.1-3.9,3.5-3.9c2.8,0,3.6,1.9,3.6,4.5h-5.2
		C137.6,95.1,138.5,95.9,139.5,95.9z M154,97.2H152v-4c0-0.9,0-2.1-1.3-2.1c-1.4,0-1.7,1.5-1.7,2.5v3.7h-1.9v-7.5h1.8v1h0
		c0.6-0.8,1.5-1.2,2.5-1.2c1.8,0,2.5,1.2,2.5,2.9V97.2z M161.9,97.3c-1.2,0.1-2.3-0.8-2.4-2c0-0.1,0-0.3,0-0.4l0-3.8h-1.4v-1.4h1.4
		v-1.5l1.9-0.6v2.1h1.7v1.4h-1.7v3.5c0,0.6,0.2,1.2,0.9,1.2c0.3,0,0.6-0.1,0.9-0.2l0.1,1.5C162.8,97.3,162.4,97.3,161.9,97.3z
		 M177.7,95.9c0,0,0.1,0,0.1,0c0.9,0,1.7-0.3,2.5-0.8l0,1.6c-0.8,0.4-1.7,0.6-2.6,0.6c-1.9,0.2-3.7-1.2-3.9-3.2c0-0.2,0-0.5,0-0.7
		c0-2.2,1.1-3.9,3.5-3.9c2.8,0,3.5,1.9,3.5,4.5h-5.2C175.7,95.1,176.6,95.9,177.7,95.9z M187.1,97.3c-0.7,0-1.5-0.1-2.2-0.3l0.1-1.6
		c0.6,0.3,1.2,0.5,1.9,0.5c0.5,0,1.3-0.2,1.3-0.9c0-1.5-3.4-0.5-3.4-3.2c0-1.6,1.4-2.3,2.9-2.3c0.7,0,1.4,0.1,2.1,0.3l-0.1,1.5
		c-0.6-0.2-1.1-0.3-1.7-0.3c-0.5,0-1.1,0.2-1.1,0.8c0,1.2,3.4,0.4,3.4,3.1C190.2,96.6,188.7,97.3,187.1,97.3z M190.3,42.4
		c-1.9-0.5-3.9-0.6-5.9-0.6c-8.1,0-12.6,5.6-12.6,15V77h-17.4V29.1h15.8v8.8h0.2c3-6.1,7.3-9.9,14.9-9.9c2,0,3.9,0.2,5.9,0.6
		L190.3,42.4z M197.6,97.3c-1.2,0.1-2.3-0.8-2.4-2c0-0.1,0-0.3,0-0.4l0-3.8h-1.4v-1.4h1.4v-1.5l1.9-0.6v2.1h1.7v1.4h-1.7v3.5
		c0,0.6,0.2,1.2,0.9,1.2c0.3,0,0.6-0.1,0.9-0.2l0.1,1.5C198.6,97.3,198.1,97.3,197.6,97.3z M212.1,97.2h-1.9V86.3h1.9V97.2z
		 M221.6,97.2c-0.1-0.4-0.1-0.7-0.1-1.1h0c-0.5,0.8-1.4,1.3-2.3,1.3c-1.3,0.1-2.5-0.8-2.6-2.1c0,0,0-0.1,0-0.1
		c-0.1-0.9,0.5-1.8,1.3-2.1c0.8-0.3,1.6-0.5,2.5-0.4h1.1c0-1.2-0.5-1.6-1.7-1.6c-0.8,0-1.6,0.3-2.3,0.8l-0.1-1.7
		c0.8-0.4,1.7-0.6,2.6-0.6c2.3,0,3.2,0.9,3.2,3.1v1c0,0.8,0,1.3,0,1.9c0,0.6,0,1.1,0.1,1.7H221.6z M217.8,86.6h2l1.2,2.1h-1.2
		L217.8,86.6z M247.4,94.5c-1,0-1.8-0.6-2.1-1.6h-14.5v-1.4h14.5c0.3-0.9,1.1-1.5,2.1-1.6c1.2,0,2.2,1,2.2,2.2
		C249.6,93.4,248.6,94.5,247.4,94.5z M250,77h-16v-8.5h-0.2c-2.2,5.3-9.3,9.7-17.3,9.7c-15,0-23-11.8-23-25.9
		c0-11.8,7.6-24.2,21.5-24.2c7,0,12.8,1.7,17.3,7.3h0.2V8.1H250V77z"/>
	<path class="st0" d="M61.8,90.9c-0.9,0-1.7,0.7-1.7,1.7c0,0,0,0.1,0,0.1h3.3C63.3,91.7,62.9,90.9,61.8,90.9z"/>
	<path class="st0" d="M218.4,95c0,0.6,0.5,0.9,1.2,0.9l0,0c0.5,0,1-0.2,1.4-0.7c0.3-0.5,0.4-1,0.4-1.5h-0.8
		C219.7,93.7,218.4,93.8,218.4,95z"/>
	<path class="st0" d="M48.7,88.6h-1.1v6.9h1.1c1.9-0.1,3.4-1.7,3.3-3.6C51.9,90.1,50.5,88.7,48.7,88.6z"/>
	<path class="st0" d="M222,40.7c-6.8,0-10.5,5.5-10.5,11.9c0,7.6,4,12.9,10.5,12.9c5.8,0,10.6-5.2,10.6-12.2
		C232.6,45.9,228.4,40.7,222,40.7z"/>
	<path class="st0" d="M118.7,39.6c-8,0-11.3,6.3-11.3,13.5c0,7.1,3.3,13.4,11.3,13.4c8,0,11.3-6.3,11.3-13.4
		C129.9,45.9,126.7,39.6,118.7,39.6z"/>
</g>
</svg>
