<svg id="Calque_1" data-name="Calque 1" xmlns="http://www.w3.org/2000/svg" viewBox="0 0 1026.64 410.66"><defs><style>.cls-1{fill:#fff;}</style></defs><path class="cls-1" d="M313.48,359.75c0,2.42,2,3.46,4.67,3.46h0a6.24,6.24,0,0,0,5.16-2.53,9.36,9.36,0,0,0,1.54-5.81h-3.19C318.35,354.87,313.48,355.41,313.48,359.75Z"/><path class="cls-1" d="M426.14,344.38a6.4,6.4,0,0,0-6.53,6.27V351h12.51C431.91,347.45,430.26,344.38,426.14,344.38Z"/><path class="cls-1" d="M277.77,344.71c-4.73,0-6.59,5.05-6.59,9h0c0,4,1.59,9.17,6.47,9.17s6.2-5.27,6.2-9.17S282.54,344.71,277.77,344.71Z"/><path class="cls-1" d="M671.93,344.38a6.41,6.41,0,0,0-6.54,6.27c0,.12,0,.25,0,.37h12.51C677.69,347.45,676,344.38,671.93,344.38Z"/><path class="cls-1" d="M827,359.74c0,2.42,2,3.47,4.67,3.47h0a6.23,6.23,0,0,0,5.15-2.53,9.37,9.37,0,0,0,1.54-5.82h-3.18C831.87,354.86,827,355.41,827,359.74Z"/><path class="cls-1" d="M449.33,150c-30.33,0-42.76,24-42.76,51.16C406.57,228,419,252,449.33,252s42.76-24,42.76-50.81C492.09,174,479.66,150,449.33,150Z"/><path class="cls-1" d="M184.31,335.66H180v26.23h4.28a13.13,13.13,0,0,0,0-26.23Z"/><path class="cls-1" d="M115.71,344.38a6.4,6.4,0,0,0-6.53,6.27V351h12.51C121.48,347.45,119.83,344.38,115.71,344.38Z"/><path class="cls-1" d="M840.66,154.18c-25.58,0-39.83,20.89-39.83,44.9,0,28.89,15,48.73,39.83,48.73h0c21.93,0,40.2-19.83,40.2-46.29C880.86,174,864.78,154.18,840.66,154.18Z"/><path class="cls-1" d="M0,0V410.66H1026.64V0ZM85.26,367.93H77.9V326.76h7.36Zm31.52-4.69a3.87,3.87,0,0,0,.48,0,19,19,0,0,0,9.39-2.85l0,6a19.39,19.39,0,0,1-9.71,2.24c-9.32,0-14.77-5.37-14.77-14.65,0-8.18,4.34-14.92,13.12-14.92,10.49,0,13.45,7.18,13.45,17.06H109.18A7.39,7.39,0,0,0,116.78,363.24Zm-38.4-71.56v-243H165l86.25,165H252l-1.09-165H313v243H228.6l-89.18-166h-.73l2.19,166Zm163.38,36.13-7.52,8h-4.55l4.55-8Zm-58.94,40.12H172.34V329.61h10.48c11.75,0,22.12,3.95,22.12,19.16S194.57,367.93,182.82,367.93Zm52.28-4.7.46,0a19,19,0,0,0,9.38-2.86v6a19.45,19.45,0,0,1-9.72,2.24c-9.32,0-14.76-5.37-14.76-14.65,0-8.18,4.33-14.93,13.12-14.93,10.48,0,13.44,7.19,13.44,17.07H227.49A7.38,7.38,0,0,0,235.1,363.23Zm44.42,5.35a9.66,9.66,0,0,1-8.29-3.89h-.11v14.76h-7.35V339.66h7v4h.11a9.59,9.59,0,0,1,8.78-4.67c8.67,0,11.86,6.92,11.86,14.71S288.36,368.58,279.52,368.58Zm46-.67a32.87,32.87,0,0,1-.33-4.21h-.11a10.1,10.1,0,0,1-8.72,4.88c-5,0-9.88-3-9.88-8.39a8.32,8.32,0,0,1,4.83-8.07,22.38,22.38,0,0,1,9.5-1.64h4.06c0-4.56-2-6.09-6.37-6.09a14.82,14.82,0,0,0-8.72,3.06l-.23-6.31a25.4,25.4,0,0,1,9.83-2.14c8.61,0,12.18,3.57,12.18,11.91v3.61c0,2.85,0,5,.11,7.08s.16,4.12.32,6.31Zm41.05-21.29a7.69,7.69,0,0,0-3.31-.6c-6,0-6,7.47-6,11.52v10.38H349.9l0-28.26h6.53v6.41h.11A8.65,8.65,0,0,1,364.3,339a8.15,8.15,0,0,1,2.25.22Zm26.89,22a8.32,8.32,0,0,1-9-7.6,9,9,0,0,1,0-1.56V345h-5.43v-5.38h5.43V334l7.35-2.36v8h6.54V345h-6.54v13.17c0,2.4.66,4.66,3.47,4.66a6.47,6.47,0,0,0,3.34-.77l.22,5.82A19.15,19.15,0,0,1,393.44,368.58Zm33.78-5.34.46,0a19.14,19.14,0,0,0,9.38-2.85v6a19.39,19.39,0,0,1-9.71,2.24c-9.32,0-14.77-5.37-14.77-14.65,0-8.18,4.34-14.92,13.12-14.92,10.49,0,13.45,7.18,13.45,17.06H419.61A7.4,7.4,0,0,0,427.22,363.24ZM338.59,201.17c0-60.21,47.88-95,110.74-95s110.73,34.81,110.73,95c0,59.87-47.87,94.68-110.73,94.68S338.59,261,338.59,201.17ZM497.26,367.93h-7.35V351.07c0-2.63,0-6.36-4.23-6.36-4.88,0-5.49,5.82-5.49,9.49v13.72h-7.35V351.07c0-2.63,0-6.36-4.23-6.36-4.89,0-5.49,5.81-5.49,9.49v13.72h-7.35V339.66h6.86v3.95h.11a10,10,0,0,1,8.4-4.61,8.25,8.25,0,0,1,8.34,5,9.7,9.7,0,0,1,8.83-5c7,0,8.95,4.78,8.95,11.09Zm31.21-4.69.45,0a19.18,19.18,0,0,0,9.39-2.85v6a19.43,19.43,0,0,1-9.71,2.24c-9.32,0-14.77-5.37-14.77-14.65,0-8.18,4.34-14.92,13.12-14.92,10.48,0,13.45,7.18,13.45,17.06H520.85A7.41,7.41,0,0,0,528.47,363.24Zm54.62,4.68h-7.35v-15.1c0-3.45,0-8.12-4.77-8.12-5.33,0-6.48,5.77-6.48,9.39v13.83h-7.35V339.66h7v3.84h.1a10.58,10.58,0,0,1,9.28-4.51c6.7,0,9.6,4.72,9.6,11.09Zm29.88.66a8.32,8.32,0,0,1-9-7.6,8.13,8.13,0,0,1,0-1.56V345h-5.43v-5.38H604V334l7.36-2.36v8h6.53V345h-6.54v13.17c0,2.4.65,4.66,3.45,4.66a6.51,6.51,0,0,0,3.35-.77l.22,5.82A19.18,19.18,0,0,1,613,368.58Zm60-5.34.45,0a19.15,19.15,0,0,0,9.39-2.85v6a19.45,19.45,0,0,1-9.72,2.24c-9.32,0-14.76-5.37-14.76-14.65,0-8.18,4.34-14.92,13.12-14.92,10.48,0,13.45,7.18,13.45,17.06H665.39A7.4,7.4,0,0,0,673,363.24Zm35.46,5.35a32.64,32.64,0,0,1-8.34-1.21l.44-6a16,16,0,0,0,7.24,1.86c1.86,0,4.83-.71,4.83-3.46,0-5.54-12.79-1.75-12.79-12,0-6.09,5.33-8.78,11.09-8.78a33.92,33.92,0,0,1,8,1l-.5,5.54a17.84,17.84,0,0,0-6.58-1.2c-2,0-4.34.71-4.34,3.12,0,4.51,12.79,1.65,12.79,11.86C720.33,366,714.45,368.59,708.47,368.59Zm12.18-208.14a79.29,79.29,0,0,0-22.3-2.09c-30.69,0-47.87,21.23-47.87,56.74v76.57H584.69V110.33h59.94v33.39h.73c11.33-23,27.77-37.58,56.28-37.58a144.85,144.85,0,0,1,22.29,2.1Zm27.71,208.13a8.32,8.32,0,0,1-9-7.6,9,9,0,0,1,0-1.56V345H734v-5.38h5.44V334l7.35-2.36v8h6.53V345h-6.53v13.17c0,2.4.66,4.66,3.46,4.66a6.53,6.53,0,0,0,3.35-.77l.22,5.82A19.18,19.18,0,0,1,748.36,368.58Zm54.71-.65h-7.35V326.76h7.35Zm36,0a34.8,34.8,0,0,1-.34-4.21h-.11a10.06,10.06,0,0,1-8.72,4.88c-5,0-9.87-3-9.87-8.39a8.29,8.29,0,0,1,4.83-8.07,22.31,22.31,0,0,1,9.49-1.64h4.06c0-4.56-2-6.09-6.36-6.09a14.74,14.74,0,0,0-8.72,3.07l-.24-6.32a25.39,25.39,0,0,1,9.82-2.14c8.62,0,12.19,3.57,12.19,11.91v3.61c0,2.85.06,5,.11,7.08s.17,4.12.33,6.31Zm-14.28-40.1h7.52l4.55,8h-4.55Zm112.08,30a8.35,8.35,0,0,1-7.93-5.88h-55v-5.13h55a8.35,8.35,0,0,1,7.93-5.88h0a8.45,8.45,0,0,1,0,16.89Zm9.82-66.12H886V259.3h-.74c-8.4,20.19-35.08,36.55-65.41,36.55-56.65,0-87-44.56-87-98.16,0-44.56,28.88-91.55,81.5-91.55,26.31,0,48.6,6.62,65.42,27.5h.73v-103h66.15Z"/><path class="cls-1" d="M234,344.38a6.4,6.4,0,0,0-6.54,6.27V351H240C239.79,347.45,238.14,344.38,234,344.38Z"/><path class="cls-1" d="M527.39,344.38a6.42,6.42,0,0,0-6.54,6.27c0,.13,0,.25,0,.37h12.51C533.15,347.45,531.51,344.38,527.39,344.38Z"/></svg>